<svg xmlns="http://www.w3.org/2000/svg" width="256" height="256" viewBox="0 0 100 100"><rect width="100" height="100" rx="20" fill="#06002c"></rect><path d="M27.83 77.05L9.68 77.05L19.03 23.02L33.99 23.06Q41.78 23.06 45.86 26.82Q49.94 30.59 49.46 37.53L49.46 37.53Q48.83 45.77 40.85 49.48L40.85 49.48Q43.71 50.67 45.05 53.62Q46.38 56.57 46.08 60.87L46.08 60.87Q45.53 68.41 40.72 72.73Q35.92 77.05 27.83 77.05L27.83 77.05ZM32.02 53.60L24.41 53.56L21.89 68.00L28.12 68.07Q31.65 68.00 33.67 65.49Q35.69 62.99 35.77 58.35L35.77 58.35Q35.77 53.90 32.02 53.60L32.02 53.60ZM28.12 32.11L25.75 45.62L30.80 45.69Q34.84 45.62 36.92 42.95Q39.00 40.28 38.70 36.12L38.70 36.12Q38.33 32.37 34.25 32.15L34.25 32.15L28.12 32.11ZM52.69 62.77L52.69 62.77Q52.99 58.87 55.33 55.45Q57.66 52.04 62.82 48.48L62.82 48.48Q61.37 44.80 60.78 42.11Q60.19 39.42 60.37 36.83L60.37 36.83Q60.85 30.33 64.77 26.21Q68.68 22.09 74.44 22.24L74.44 22.24Q79.30 22.39 82.30 25.95Q85.31 29.52 85.01 34.60L85.01 34.60Q84.60 41.80 77.52 46.99L77.52 46.99L74.18 49.44L79.15 58.79Q81.23 54.60 81.78 50.52L81.78 50.52L90.32 50.48Q89.43 60.84 84.01 67.44L84.01 67.44L89.02 77.05L78.04 77.05L76.66 74.31Q71.17 77.91 65.57 77.76L65.57 77.76Q59.37 77.61 55.81 73.42Q52.25 69.22 52.69 62.77ZM66.72 69.07L66.72 69.07Q68.94 69.19 72.51 67.14L72.51 67.14L66.53 55.08L66.12 55.38Q64.45 57.64 63.75 59.76Q63.04 61.87 63.19 64.29L63.19 64.29Q63.27 66.33 64.19 67.68Q65.12 69.04 66.72 69.07ZM69.20 36.57L69.20 36.57Q68.91 39.05 70.54 42.76L70.54 42.76L72.51 41.43Q75.92 38.90 76.25 35.27L76.25 35.27Q76.37 33.34 75.66 32.15Q74.96 30.96 73.58 30.96L73.58 30.96Q71.91 30.96 70.73 32.52Q69.54 34.08 69.20 36.57Z" fill="#fff"></path></svg>