<svg width="80" height="39" viewBox="0 0 80 39" fill="none" xmlns="http://www.w3.org/2000/svg">
<path d="M18.1227 10.2802C18.1147 10.1532 18.0613 9.95158 18.1116 9.83771C18.1334 9.78831 18.1526 9.79151 18.2033 9.77193C18.2618 9.79433 18.3033 9.81322 18.3678 9.80255C18.3458 9.7399 18.3372 9.72958 18.3559 9.66354C18.4597 9.64012 18.488 9.68624 18.5822 9.67462L18.5702 9.54635C18.6404 9.49615 18.6511 9.50057 18.7345 9.49935C18.7804 9.55755 18.8117 9.60668 18.8845 9.63208C18.939 9.56962 18.8629 9.45654 18.8795 9.36342C19.015 9.35421 19.0354 9.44519 19.16 9.48511L19.21 9.45064L19.1972 9.23774C19.28 9.20289 19.3322 9.22936 19.4167 9.24867C19.4863 9.20384 19.4348 9.1466 19.4692 9.06826C19.5554 9.04929 19.5743 9.03767 19.6589 9.07001L19.6493 9.19139C19.661 9.19367 19.6725 9.19767 19.6844 9.19824C19.7447 9.20118 19.7803 9.15528 19.8154 9.11686C19.7862 9.03562 19.7581 8.97521 19.7784 8.88796C19.8597 8.88499 19.9818 8.96101 20.0579 8.99521C20.0602 8.93103 20.0359 8.90689 20.0033 8.8522L20.0223 8.78646L20.1175 8.75702C20.2824 8.80234 20.1625 8.83087 20.2442 8.90917C20.3691 9.02895 20.672 8.99384 20.7925 9.22635C20.827 9.29304 20.8318 9.35158 20.8 9.4215C20.6821 9.68136 20.2336 9.80693 19.9831 9.91883C19.8593 10.1057 19.5733 10.5774 19.354 10.6367C19.2304 10.6701 19.0885 10.6598 18.9599 10.6895C18.2417 10.8555 17.6576 11.6106 17.2911 12.1957C17.6344 12.3147 18.4951 12.5517 18.6639 12.8888C18.692 12.945 18.6802 12.9529 18.6604 13.0117C18.3557 13.1617 17.2981 12.6895 16.9106 12.6379C16.7968 12.6969 16.7039 12.9009 16.6758 13.0264C16.5277 13.6892 16.6991 14.3604 16.3516 15.0223C15.9315 15.8228 14.3141 16.6838 14.1276 17.1418C14.1029 17.2026 14.116 17.2094 14.141 17.2664C14.4724 17.4042 14.7326 17.0209 15.036 16.9874C15.0923 16.9812 15.0962 16.996 15.1406 17.0303C15.1782 17.1651 15.1473 17.3171 15.1065 17.4489C14.9645 17.9077 14.1815 18.258 13.774 18.4658C13.6579 18.9236 13.5903 19.4186 13.2771 19.792C13.6965 20.8178 14.5604 21.7212 14.779 22.8053C14.98 23.8022 15.0802 24.8344 15.2282 25.8403C15.312 26.4096 15.4464 26.9709 15.532 27.5378C15.5656 27.7602 15.4914 28.1361 15.5897 28.3277C15.7878 28.7138 16.3924 28.7716 16.7741 28.8971C17.1951 29.0355 17.3413 29.2483 17.5252 29.6159C18.391 29.6723 19.2753 29.6369 20.1432 29.6321C20.127 27.341 20.0692 25.0312 20.1351 22.7415L46.2316 22.7353L54.7914 22.7378C56.3441 22.7378 57.9152 22.6377 59.4629 22.7917C59.4731 22.8058 59.4777 22.8113 59.4867 22.8279C59.5359 22.9205 59.582 29.279 59.4797 29.6479C59.7149 29.6723 59.9563 29.6572 60.1922 29.6524C60.6797 29.3769 61.1149 28.7108 61.7125 28.3483L61.7184 28.3448C61.8457 27.957 61.7926 27.4284 61.7981 27.0219C61.8094 26.221 61.857 25.3941 61.8 24.5953C61.757 23.9945 61.5809 23.4137 61.4793 22.8214C61.277 21.6444 61.2844 20.7576 60.7977 19.6113C60.4242 18.7307 59.3688 17.5954 59.2691 16.7077C59.1379 15.5323 59.9539 15.4399 60.6234 14.8256C60.8672 14.6019 60.8684 14.3557 61.191 14.1728C61.777 13.8403 62.2383 14.0894 62.8262 13.371C62.8309 13.3652 62.8352 13.3592 62.8398 13.3533C63.0781 13.408 63.3438 13.5155 63.5606 13.6266C63.5453 13.3309 63.268 13.3769 63.191 13.1634C63.2586 13.0514 63.3406 12.9531 63.4168 12.8471C63.4926 12.7413 63.5922 12.6113 63.5684 12.4761C63.3453 12.3051 62.9797 12.3447 62.743 12.1526C62.6516 12.0784 62.5852 11.9903 62.5762 11.8722C62.6004 11.8193 62.609 11.786 62.6574 11.7498C62.9207 11.5525 63.3297 11.6364 63.6301 11.676C64.0922 11.4346 64.2891 10.861 64.9949 10.7949C65.3496 10.7617 65.6582 10.9405 65.9203 11.1557C66.3008 11.1812 66.7711 11.7887 67.025 12.0712C67.0758 12.128 67.1184 12.1891 67.1582 12.2539L67.1551 12.2869C67.0538 12.2954 66.9527 12.3053 66.852 12.3166L66.8324 12.3658C66.9691 12.509 67.1598 12.6647 67.2363 12.8471C67.2293 12.9325 67.1582 13.0124 67.2074 13.0717C67.291 13.1715 67.4473 13.2067 67.4961 13.3273C67.9238 13.4665 68.234 13.8498 68.4293 14.2289C68.7231 14.799 68.8273 15.4129 69.0555 16.0007C69.2859 16.5945 69.6777 17.1493 69.809 17.7774C69.868 18.0602 69.7121 18.3496 69.7731 18.6215C69.8266 18.8579 70.1109 19.0767 70.0317 19.3337C70.025 19.3556 70.0207 19.3637 70.0117 19.383C70.1996 19.696 70.068 20.5974 70.0871 20.9941C70.0973 21.2043 70.3113 22.4914 70.2824 22.592C70.2746 22.6185 70.2645 22.6431 70.252 22.6676C70.5043 23.0142 70.432 23.4803 70.7484 23.8172C71.1035 24.1953 71.6172 24.5076 72.0316 24.8293C72.7074 25.3536 75.2512 27.3578 75.4305 28.0494C75.2445 28.4135 74.9434 28.6523 74.7051 28.9751C74.552 29.1821 74.4586 29.4579 74.2641 29.6266L76.4844 29.629C76.8488 29.6285 77.2383 29.6006 77.6004 29.6336C77.6656 29.7841 77.6918 29.9314 77.6274 30.0873C77.6121 30.1243 77.5652 30.1379 77.5301 30.157C77.3844 30.2326 77.1266 30.2111 76.9606 30.2132C75.9008 30.2266 74.8363 30.1963 73.7758 30.1963L64.7879 30.1894L59.3793 30.1918C58.1422 30.1927 56.9051 30.2086 55.6691 30.1574C55.2352 30.2785 53.1996 30.1817 52.5801 30.1816L43.6168 30.1835L2.40358 30.1893C2.40439 30.0054 2.39365 29.8203 2.38797 29.6364L5.79766 29.6316C5.54364 28.9235 4.89067 28.503 4.52618 27.8494C4.56147 27.8167 4.59614 27.7833 4.6302 27.7493C4.76216 27.6183 5.37524 26.9578 5.37567 26.7895C5.37595 26.6781 5.28399 26.6662 5.38325 26.5421C5.92591 25.8639 8.33579 23.4679 8.57524 22.8336C8.79852 22.2422 8.68102 21.3583 8.67282 20.7246C7.80915 20.446 7.11009 19.9205 6.45587 19.319C7.13341 18.6859 7.65649 17.8759 8.03056 17.0403C8.4972 15.9979 8.81579 14.8723 9.07872 13.7665C9.20477 13.2362 9.28587 12.6766 9.46106 12.1603C9.53559 11.9405 9.64638 11.6286 9.83579 11.4832C10.4326 11.025 11.3553 11.13 12.0547 11.2128C12.2488 11.0248 12.4316 10.8392 12.5977 10.627C12.5822 10.118 12.6104 9.61589 12.9771 9.21287C13.1946 8.9738 13.4978 8.86355 13.8206 8.85083C14.6828 8.81681 15.3446 9.41777 15.9296 9.95017L15.4884 10.2897C15.4771 10.4622 15.5915 10.9562 15.5291 11.0541C15.4876 11.1192 15.3625 11.15 15.3083 11.2353C15.353 11.3448 15.4703 11.4163 15.562 11.4879L16.131 11.5603C16.214 11.6394 16.299 11.728 16.3919 11.7957C16.4682 11.8512 16.5464 11.8577 16.6384 11.8449C16.7404 11.8306 17.9635 10.4806 18.1227 10.2802ZM20.7236 29.6275L45.9426 29.618L54.3859 29.6163C55.8379 29.6163 57.2984 29.6506 58.7492 29.6118L58.8602 29.5564C58.9496 29.2868 58.8852 24.2926 58.8613 23.7535C58.8555 23.6271 58.8621 23.4758 58.8008 23.3616C58.7883 23.3385 58.7848 23.3347 58.7684 23.3107L20.7886 23.3274C20.7197 23.8503 20.7687 24.4175 20.7558 24.9469C20.7112 26.5069 20.7004 28.0671 20.7236 29.6275ZM65.4273 28.8079C66.1758 29.2725 66.9809 29.4948 67.8566 29.6031C69.2133 29.6914 70.5637 29.4374 71.9172 29.3912C71.9875 29.3663 72.075 29.2702 72.1508 29.2318C72.4363 29.087 72.7238 29.0156 73.0406 28.9721C73.1844 28.7944 73.3336 28.4779 73.3469 28.2511C73.366 27.9327 73.0645 27.9803 72.9215 27.8041C72.8594 27.7275 72.8863 27.6389 72.8477 27.5659C72.818 27.5099 72.6328 27.3942 72.5781 27.3518C71.9691 26.8795 71.3445 26.4787 70.682 26.0827C70.1551 25.7677 69.5723 25.4689 69.1086 25.0702C68.2035 24.292 68.5152 21.9774 67.9914 21.3844C67.8234 21.7905 65.8539 22.7693 65.3543 23.8823C65.0824 24.4876 65.4664 25.221 65.2531 25.838C65.2512 25.8443 65.2484 25.8504 65.2461 25.8566C65.3371 26.0136 65.5422 28.5035 65.452 28.7597C65.4465 28.7749 65.4348 28.7947 65.4273 28.8079ZM8.08079 29.212C8.15692 29.3509 8.23141 29.4896 8.32165 29.6205C8.84905 29.6448 9.37658 29.6485 9.90427 29.6317L13.7768 29.631C13.7396 29.3169 13.766 28.9943 13.7783 28.679C13.65 28.5254 13.5265 28.3775 13.3733 28.2463C13.3427 27.0383 13.267 25.8329 13.1461 24.6302C13.1031 24.1647 13.1034 23.6191 12.9515 23.1752C12.8806 23.1175 12.8121 23.0595 12.7465 22.9959C12.7484 22.92 12.7624 22.8605 12.7853 22.7882C12.667 22.4623 11.1923 20.4884 10.9386 20.3507C10.8116 21.1402 10.7766 22.4826 10.531 23.1694C10.4621 23.362 10.3537 23.5398 10.2406 23.7103C9.91044 24.2085 7.35692 27.7595 7.14075 27.9175C7.00677 28.0155 6.91673 27.8503 6.87692 28.0835C6.8404 28.2973 6.91126 28.5098 7.04204 28.6812C7.32169 29.0477 7.6663 29.0998 8.08079 29.212ZM62.075 19.8997C62.2121 20.9084 62.1352 21.9646 62.1008 22.9791C62.082 23.5359 62.0383 24.1174 62.141 24.6682C62.2781 25.4035 63.0086 26.1606 63.1008 26.5935C63.107 26.5982 63.1133 26.6028 63.1195 26.6076C63.2563 26.7148 63.3305 26.8891 63.4824 26.9708L63.5324 26.9523C63.6031 26.5714 63.3621 23.5939 63.2274 23.0889C63.7141 22.7305 64.7895 21.0181 65.282 20.4148C65.4566 20.2013 66.0871 19.6105 66.1399 19.3976C66.2516 19.0725 66.0258 18.4765 65.8785 18.1758C65.8625 18.1432 65.841 18.1145 65.8172 18.0868L65.7402 18.0715C65.6379 18.3986 65.5121 18.5343 65.1957 18.7003C64.4856 19.0728 63.6539 19.2012 62.9106 19.4814C62.6602 19.5757 62.4578 19.8279 62.2082 19.8744C62.1637 19.8827 62.1195 19.892 62.075 19.8997ZM59.7797 15.6616C59.7781 15.6671 59.777 15.6728 59.7754 15.6783C59.7313 15.8316 59.6191 15.9608 59.5594 16.1096C59.3727 16.5743 59.6094 17.1193 59.8379 17.5323C60.0918 17.991 60.427 18.4017 60.6902 18.8552C61.0731 19.5145 61.7746 21.1539 61.5391 21.8903C61.5363 21.8998 61.5328 21.9092 61.5293 21.9186C61.641 22.1212 61.6906 22.4057 61.6199 22.6298C61.6117 22.6551 61.602 22.6797 61.5918 22.7043C61.6508 22.6158 61.7082 22.5238 61.7274 22.4184C61.7863 22.0947 61.8086 20.3049 61.7434 19.9954C61.7324 19.9408 61.7177 19.8873 61.6992 19.8348C61.5543 19.7532 61.409 19.7036 61.3609 19.5324C61.3109 19.3545 61.3918 19.1 61.3063 18.9442C61.4074 18.8749 61.5879 18.7471 61.6164 18.6244C61.7578 18.3175 61.5352 16.0088 61.4035 15.6685C61.3805 15.609 61.3508 15.5578 61.3102 15.5082C61.1649 15.393 60.9445 15.2306 60.7516 15.2506C60.7438 15.2514 60.7363 15.2524 60.7285 15.2533C60.6102 15.4388 60.0106 15.6016 59.7797 15.6616ZM65.8668 16.4338C65.8633 16.4282 65.8602 16.4225 65.8567 16.4171C65.6844 16.1554 65.1621 16.0224 65.1789 15.6736C65.2156 15.6439 65.2199 15.6245 65.2703 15.6289C65.4965 15.649 65.9344 16.1388 66.1641 16.0651C66.2164 16.0483 66.277 16.0097 66.327 15.9852L66.3305 15.943C66.1012 15.7892 65.8344 15.6455 65.6258 15.4686C65.4641 15.3313 65.3375 15.165 65.1695 15.0319C65.6363 15.096 66.0352 15.5412 66.4773 15.5375L66.5234 15.5028C66.4926 15.3278 66.2172 15.1512 66.0699 15.0503C65.8098 14.8721 65.552 14.7189 65.2629 14.5897C65.4438 14.6031 65.627 14.614 65.8024 14.6603C65.9313 14.6943 66.2531 14.8432 66.3633 14.8324C66.3871 14.83 66.4035 14.8078 66.4234 14.7955C66.432 14.7007 66.4152 14.6289 66.3539 14.5521C66.2578 14.4316 65.9715 14.3705 65.8191 14.3641C65.7641 14.3618 65.7074 14.3697 65.6531 14.3774C64.8926 15.0464 64.8664 16.3451 64.6094 17.248C64.6465 17.3649 64.7348 17.4308 64.8453 17.4879C65.002 17.5691 65.3133 17.6847 65.4914 17.6266C65.5199 17.6172 65.5449 17.606 65.5711 17.5917C65.5742 17.5389 65.5816 17.5341 65.5438 17.4954C65.3738 17.3223 64.9609 17.1772 64.7274 17.1043C64.7332 17.0994 64.7391 17.0945 64.7449 17.0895C64.8363 17.0095 64.8852 16.8832 64.9949 16.8407C65.2418 16.8833 65.4707 17.1197 65.7328 17.0821C65.7191 16.9803 65.6375 16.9079 65.5555 16.8449C65.4047 16.7291 65.0516 16.5755 64.9832 16.4154L65.0117 16.3239C65.3606 16.2214 65.6184 16.5899 65.9238 16.5689C65.9277 16.4937 65.9129 16.4907 65.8668 16.4338ZM15.5682 12.2936C15.447 12.1505 15.3317 11.9883 15.1593 11.9022C15.0053 12.1079 14.7891 12.5404 14.5206 12.5842C14.2531 12.6278 14.0468 12.4226 13.8438 12.2886L13.4053 12.6212C13.6771 13.0138 13.7509 13.5078 14.0461 13.8856L13.6086 13.9535C13.6163 14.1725 13.4725 15.1047 13.5068 15.1781C13.958 14.786 14.7561 14.1005 15.0752 13.6212C15.196 13.4398 15.2037 13.1375 15.3454 12.9871C15.5547 12.765 16.0193 12.7401 16.1228 12.4392C16.0118 12.3334 15.7199 12.3176 15.5682 12.2936ZM61.7863 16.1673C61.7902 16.1747 61.7941 16.1819 61.7981 16.1895C62.0418 16.7003 61.8063 18.2309 62.2188 18.5981C62.2402 18.6007 62.2961 18.6143 62.3145 18.6096C62.3859 18.5915 63.1094 18.2049 63.1816 18.1503C63.1914 18.1429 63.2066 18.1271 63.2145 18.1196C63.4094 18.0474 63.6391 17.9349 63.7574 17.7622C63.7176 17.7023 62.0008 16.2049 61.9191 16.1606L61.7863 16.1673ZM64.1254 12.4616C64.1223 12.468 64.1191 12.4745 64.1156 12.4807C63.9754 12.7274 63.5586 12.7827 63.5406 13.0902C63.6387 13.2633 63.8633 13.2527 63.9883 13.3722C63.977 13.5183 63.8957 13.7557 63.9524 13.884C64.0551 13.9774 64.1895 14.003 64.3266 13.9973C64.4723 13.9913 64.6242 13.952 64.7668 13.9223L64.7918 13.8824C64.9195 13.6562 64.9816 13.2924 64.9082 13.0366C65.0363 12.9775 65.2164 12.9193 65.2637 12.7751C65.2879 12.7013 65.275 12.6914 65.2383 12.6287C65.0957 12.6034 65.0113 12.6354 64.8918 12.716C64.8053 12.7753 64.7202 12.8362 64.6363 12.8988L64.6219 12.8564L64.5586 12.9378L64.5965 12.9246C64.5617 12.9237 64.5754 12.9215 64.5547 12.9261C64.4641 12.7128 64.4895 12.3027 64.252 12.209C64.1215 12.1574 63.9348 12.156 63.7945 12.1684C63.9098 12.2472 64.0691 12.3313 64.1254 12.4616ZM61.6699 29.6663C61.8145 29.6653 61.9969 29.6858 62.1367 29.6615C62.2129 29.5028 62.2797 29.3728 62.2543 29.1933C62.3582 29.1483 62.4832 29.1145 62.541 29.0138C62.5262 28.9799 62.5274 28.954 62.4899 28.9405C62.2371 28.8488 61.977 28.9439 61.7227 28.8831C61.6754 28.8718 61.6461 28.8774 61.5996 28.8881C61.4805 29.1052 60.843 29.5686 60.6074 29.6628L61.6699 29.6663ZM14.207 15.8011C14.7122 15.4768 15.1617 15.1013 15.5949 14.6905C15.5797 14.5132 15.5917 14.1816 15.4896 14.0456C15.2004 14.3527 14.1644 15.4216 14.1318 15.7373C14.1596 15.7735 14.16 15.7915 14.207 15.8011ZM66.0277 17.6703C66.1113 17.7494 66.2606 17.8926 66.2691 18.0117C66.2699 18.0192 66.2684 18.0267 66.2676 18.0341C66.5121 18.1644 67.3375 17.8615 67.6266 17.779C68.1219 17.6377 68.8031 17.4984 69.2023 17.174L69.2328 17.0995C69.1711 17.039 69.1441 17.0351 69.0555 17.0365C69.025 17.037 69.018 17.039 68.9914 17.0434C68.3512 17.4983 66.9836 17.8184 66.2008 17.699C66.143 17.6901 66.0853 17.6805 66.0277 17.6703ZM63.6664 28.0689C63.6645 27.9074 63.6856 27.6763 63.6152 27.529C63.4649 27.2124 62.9723 26.7681 62.7402 26.4568C62.5359 26.1827 62.3723 25.7808 62.1324 25.5515C62.1093 25.5293 62.0856 25.5078 62.0613 25.4869C62.2055 25.7652 62.2121 27.954 62.0922 28.321C62.0813 28.3539 62.0645 28.3845 62.0457 28.4137C62.4996 28.4899 62.6945 28.5791 63.0035 28.9155C63.2035 28.8783 63.3668 28.7219 63.5149 28.5934C63.6406 28.4842 63.7816 28.3361 63.7922 28.1691L63.6664 28.0689ZM63.5602 13.9965C63.3356 14.267 62.8176 14.2969 62.5281 14.5223C62.4774 14.5618 62.4207 14.5955 62.3672 14.6311C62.4285 14.8319 62.425 15.0263 62.4152 15.2335C62.6648 15.5299 63.2461 16.0581 63.6352 16.1374C63.6676 16.1239 63.6992 16.1149 63.725 16.0914C64.1848 15.9051 64.6309 15.1244 64.8149 14.6937C64.8602 14.5871 64.8859 14.4952 64.8789 14.3793C64.8281 14.3087 64.8199 14.2907 64.7285 14.2759C64.5281 14.2435 64.2395 14.3142 64.034 14.3431C63.9742 14.2124 63.7945 14.0409 63.6508 13.9988C63.6195 13.9896 63.5922 13.9931 63.5602 13.9965ZM69.2172 17.5004C68.8523 17.9 67.1344 18.2271 66.5785 18.3212C66.4707 18.3394 66.3809 18.3258 66.3809 18.4528L66.4469 18.5367L66.5527 18.5468C67.3832 18.5214 68.7879 18.1046 69.4551 17.6176L69.4902 17.5428C69.4164 17.494 69.3746 17.4696 69.2809 17.4856C69.2594 17.4892 69.2383 17.4949 69.2172 17.5004ZM72.8699 26.6802C72.7277 26.4154 71.7813 25.856 71.4961 25.6675C71.2516 25.5057 70.9641 25.35 70.7418 25.1622C70.6356 25.0726 70.6313 24.9181 70.5492 24.8922C70.334 24.8242 69.9629 24.9552 69.7399 24.9872C69.9008 24.9117 70.1613 24.7975 70.2273 24.6266C70.2348 24.608 70.2356 24.602 70.2395 24.5843L70.2098 24.5361C69.9551 24.5203 69.8262 24.6972 69.5902 24.5165L69.5793 24.453C69.6621 24.3617 69.8313 24.3155 69.8781 24.212C69.734 24.1113 69.4356 24.1517 69.257 24.1565C69.3516 24.0007 69.3348 23.7272 69.3535 23.5459L69.3223 23.535L69.2102 23.6668L69.1602 23.6549C69.1246 23.4659 68.7492 21.2501 68.718 21.2095C68.7035 21.1908 68.6797 21.1811 68.6609 21.1669L68.5813 21.1565C68.5817 21.1635 68.5828 21.1705 68.5832 21.1775C68.5977 21.3633 68.5219 21.5412 68.534 21.7327C68.5703 22.3276 68.8274 23.8015 69.0488 24.3219C69.1305 24.514 69.257 24.6765 69.4168 24.8137C70.0465 25.3555 70.9074 25.7302 71.6145 26.1804C72.0246 26.4416 72.3879 26.775 72.8039 27.026C72.9188 27.0953 73.1152 27.2224 73.252 27.2166C73.2645 27.216 73.2774 27.2144 73.2899 27.2132C73.3254 27.1471 73.3234 27.1443 73.2992 27.0729C73.2445 26.9098 73.0723 26.769 72.916 26.6985C72.9008 26.6917 72.8856 26.6859 72.8699 26.6802ZM64.2621 28.0636C64.2652 28.0592 64.2684 28.0549 64.2711 28.0503C64.2758 28.0428 64.2797 28.0349 64.284 28.0273C64.4922 27.6701 64.1774 25.2944 64.1168 24.7733C64.0871 24.5187 64.0016 24.1893 64.025 23.9397C64.0402 23.7773 64.3719 23.7682 64.4891 23.6733C64.357 23.5849 64.0586 23.5876 63.9824 23.4858C64.0969 23.4724 64.2207 23.4807 64.3117 23.4099L64.3086 23.2648C64.3184 23.2591 64.3277 23.253 64.3375 23.2478C64.484 23.1707 64.6086 23.3049 64.7438 23.3414L64.7543 23.3054C64.6535 23.2449 64.5521 23.1852 64.45 23.1264L64.4453 23.0753C64.4859 23.0549 64.5254 23.0321 64.5664 23.0125C64.6074 22.9926 64.6375 22.9826 64.6695 22.9479C64.9109 22.6847 65.1535 22.1369 65.3856 21.8133C65.7809 21.2632 66.2766 20.7636 66.6449 20.1999C66.7066 20.1057 66.7789 19.9879 66.7695 19.873C67.0957 19.8765 67.7703 19.9433 68.0582 19.8615C68.0797 19.8375 68.1 19.8158 68.1113 19.7851C68.1453 19.6898 68.132 19.5318 68.075 19.447C68.0254 19.3732 67.9895 19.3781 67.9055 19.3598C67.7609 19.4227 67.7797 19.5271 67.6727 19.6208C67.5305 19.7451 67.3715 19.6009 67.227 19.568C67.0984 19.5389 66.9586 19.5314 66.8277 19.5196C67.0336 19.4946 67.2844 19.4748 67.4719 19.3862C67.2309 19.2557 66.7766 19.1479 66.5008 19.1388L66.443 19.1946C66.4309 19.3243 66.5324 19.4531 66.5977 19.5613C66.5641 19.648 66.4121 19.6226 66.325 19.666C66.2199 19.7181 66.1113 19.8498 66.032 19.9371C65.3961 20.6388 64.957 21.5127 64.352 22.2427C64.2402 22.3775 63.5731 23.1259 63.5508 23.2102C63.4578 23.5668 63.6914 24.3089 63.7262 24.7004C63.7996 25.535 63.8383 26.3842 63.8641 27.2216C63.8715 27.4681 63.843 27.7166 63.8578 27.9613C63.9922 27.9956 64.127 28.0317 64.2621 28.0636ZM66.1801 29.6634L66.2617 29.5941L66.234 29.5398C66.0004 29.3801 65.7184 29.2844 65.4461 29.2051C65.5137 29.329 65.4961 29.5208 65.4563 29.6523L66.1801 29.6634ZM66.132 17.4872C66.7168 17.5333 68.5195 17.0656 68.9539 16.6759C68.982 16.6506 68.9945 16.6292 69.0133 16.5968L68.9906 16.5391C68.9258 16.5139 68.8856 16.5061 68.816 16.5102C68.4313 16.8328 67.4316 17.076 66.9277 17.153C66.6816 17.1906 66.4059 17.1953 66.1668 17.2557C66.0871 17.2759 66.0727 17.2886 66.0301 17.3556C66.0555 17.4399 66.0555 17.4406 66.132 17.4872Z" fill="white"/>
<path d="M55.6691 30.1574L55.7039 30.1021C56.1285 30.0412 56.6098 30.0884 57.041 30.0879L59.8266 30.0843L70.0922 30.0855C70.7402 30.0857 77.4019 30.0341 77.5238 30.1141L77.5301 30.157C77.3844 30.2326 77.1265 30.2111 76.9605 30.2132C75.9008 30.2266 74.8363 30.1963 73.7758 30.1963L64.7879 30.1894L59.3793 30.1918C58.1422 30.1927 56.9051 30.2086 55.6691 30.1574Z" fill="white"/>
<path d="M65.9203 11.1557C66.3008 11.1812 66.7711 11.7887 67.025 12.0712C67.0758 12.128 67.1184 12.1891 67.1582 12.2539L67.1551 12.2869C67.0538 12.2954 66.9527 12.3053 66.852 12.3166L66.8324 12.3658C66.9691 12.509 67.1598 12.6647 67.2363 12.8471C67.2293 12.9325 67.1582 13.0124 67.2074 13.0717C67.291 13.1715 67.4473 13.2067 67.4961 13.3273C67.45 13.3423 67.3895 13.3661 67.3402 13.3555C67.2242 13.3303 67.0137 13.1636 66.9559 13.0584C66.8426 12.8521 67.0066 12.9122 67.0402 12.7965C66.9254 12.6603 66.7891 12.5684 66.6426 12.468C66.6844 12.3773 66.6652 12.2659 66.6555 12.1696C66.6059 11.6803 66.2852 11.4471 65.9203 11.1557Z" fill="white"/>
<path d="M70.252 22.6676C70.2485 22.6627 70.2453 22.658 70.2422 22.6531C70.0527 22.3512 69.7883 19.6982 69.861 19.3608C69.9703 19.4191 69.9184 19.5385 70.0227 19.5971L70.0117 19.383C70.1996 19.696 70.068 20.5974 70.0871 20.9941C70.0973 21.2043 70.3113 22.4914 70.2824 22.592C70.2746 22.6185 70.2645 22.6431 70.252 22.6676Z" fill="white"/>
<path d="M47.1555 24.546C47.798 24.5219 48.5332 24.4788 49.1383 24.7297C49.5601 24.9046 49.9066 25.2296 50.0738 25.6487C50.2394 26.0642 50.223 26.5698 50.0359 26.9759C49.907 27.2555 49.6437 27.5453 49.3465 27.6571C49.3398 27.6662 49.334 27.676 49.3266 27.6843C48.9586 28.079 47.225 27.967 46.6852 27.9514C46.7766 27.7984 46.7672 24.9149 46.7141 24.5778L47.1555 24.546ZM47.5445 27.2448C47.8855 27.2613 48.6297 27.3379 48.8977 27.0836C48.9219 27.0605 48.9418 27.0341 48.9562 27.0042C49.1465 26.9009 49.2797 26.678 49.3379 26.4769C49.4016 26.2565 49.341 26.0109 49.2234 25.8175C49.0566 25.5424 48.7687 25.3632 48.4551 25.286C48.1754 25.2172 47.8648 25.2358 47.5801 25.2699C47.6254 25.5961 47.7371 26.9864 47.5641 27.2207C47.5578 27.229 47.5512 27.2367 47.5445 27.2448Z" fill="white"/>
<path d="M36.0196 24.5486C36.4988 24.5197 36.9896 24.5107 37.4626 24.6031C37.9713 24.7026 38.4388 24.9428 38.7289 25.3753C38.7435 25.3975 38.7576 25.42 38.7711 25.4429C38.7847 25.4657 38.7976 25.4889 38.8099 25.5125C38.8222 25.536 38.834 25.5598 38.8451 25.5838C38.8562 25.6079 38.8667 25.6322 38.8766 25.6568C38.8864 25.6814 38.8957 25.7062 38.9043 25.7313C38.9129 25.7563 38.9209 25.7815 38.9282 25.8069C38.9355 25.8324 38.9421 25.858 38.9481 25.8837C38.9541 25.9094 38.9595 25.9353 38.9642 25.9613C38.9689 25.9873 38.9729 26.0134 38.9763 26.0396C38.9796 26.0658 38.9823 26.0921 38.9843 26.1184C38.9863 26.1448 38.9876 26.1711 38.9883 26.1975C38.9889 26.2239 38.9889 26.2503 38.9882 26.2767C38.9876 26.3031 38.9862 26.3295 38.9842 26.3558C38.9822 26.3821 38.9794 26.4084 38.9761 26.4346C38.9727 26.4608 38.9686 26.4869 38.964 26.5129C38.9592 26.5389 38.9539 26.5647 38.9478 26.5905C38.8388 27.0701 38.5518 27.4136 38.1379 27.6744C37.2952 28.062 36.4486 27.9949 35.5379 27.9848L35.5326 24.5675L36.0196 24.5486ZM36.3994 27.2303C36.8757 27.2412 37.4097 27.2832 37.8007 26.962C38.0269 26.7273 38.0775 26.4983 38.0666 26.179C38.058 25.9303 37.9789 25.6935 37.786 25.5229C37.4354 25.2126 36.8473 25.2141 36.3993 25.2249C36.4001 25.893 36.4103 26.5624 36.3994 27.2303Z" fill="white"/>
<path d="M24.0428 24.5477C24.4065 24.5335 24.7786 24.5289 25.1423 24.5426C25.6386 24.5613 26.0239 24.6302 26.3729 24.9997C26.4224 25.1613 26.485 25.3439 26.4763 25.5136C26.4629 25.7718 26.2941 25.9662 26.1034 26.1285C26.296 26.2589 26.4819 26.395 26.6019 26.5955C26.7173 26.7884 26.7688 27.0174 26.7071 27.2363C26.6321 27.5028 26.42 27.6814 26.183 27.8123C25.3217 28.1304 24.3099 28.0189 23.4057 27.9883C23.4423 26.8456 23.412 25.6949 23.4217 24.5509L24.0428 24.5477ZM24.3558 26.5477C24.3477 26.8122 24.3348 27.0765 24.3171 27.3406C24.7693 27.3468 25.1926 27.3536 25.6347 27.2435C25.7302 27.1681 25.8148 27.0738 25.8288 26.9484C25.8365 26.8789 25.8148 26.8313 25.7699 26.7789C25.6193 26.6035 25.2385 26.5565 25.0183 26.5488C24.798 26.5411 24.5762 26.5453 24.3558 26.5477ZM24.3561 25.9461C24.7096 25.9468 25.0998 25.9787 25.4371 25.8644C25.5186 25.7716 25.5824 25.665 25.5676 25.5375C25.5575 25.4509 25.5144 25.3833 25.4396 25.3341C25.1602 25.1505 24.69 25.1987 24.3646 25.2087L24.3561 25.9461Z" fill="white"/>
<path d="M31.3336 24.5763C31.5775 24.5433 31.8219 24.5516 32.0674 24.5545C32.6683 25.1466 33.2417 25.9236 33.812 26.5637C33.8339 25.9011 33.7583 25.235 33.7642 24.5699L34.6145 24.5688L34.5928 27.9733C34.3956 28.0029 34.1839 27.9847 33.9845 27.9809C33.4272 27.3062 32.7697 26.6858 32.1815 26.0316C32.1886 26.685 32.1969 27.3346 32.1722 27.9879C31.8931 27.9906 31.6133 27.9996 31.3351 27.9731C31.3215 26.8436 31.3921 25.7031 31.3336 24.5763Z" fill="white"/>
<path d="M39.5758 24.5382C40.3715 24.5237 41.4996 24.3969 42.1879 24.8501C42.4285 25.0084 42.5945 25.2442 42.6453 25.5243C42.6487 25.543 42.6516 25.5617 42.6539 25.5805C42.6562 25.5994 42.6581 25.6182 42.6594 25.6371C42.6607 25.6561 42.6616 25.675 42.6621 25.694C42.6626 25.7129 42.6625 25.7319 42.6617 25.7508C42.6612 25.7698 42.6602 25.7887 42.6586 25.8076C42.657 25.8265 42.6551 25.8454 42.6527 25.8642C42.6501 25.883 42.6471 25.9017 42.6437 25.9203C42.6401 25.939 42.6361 25.9576 42.6316 25.976C42.6272 25.9945 42.6224 26.0128 42.6172 26.0311C42.6117 26.0493 42.6059 26.0674 42.5996 26.0853C42.5934 26.1032 42.5866 26.121 42.5793 26.1386C42.572 26.1562 42.5643 26.1736 42.5562 26.1909C42.5482 26.2081 42.5396 26.2251 42.5305 26.2419C42.5216 26.2588 42.5122 26.2753 42.5023 26.2917C42.4924 26.308 42.4822 26.3241 42.4715 26.34C42.4608 26.3558 42.4497 26.3714 42.4383 26.3867C42.2051 26.704 41.8766 26.8603 41.4906 26.926C41.2641 27.0478 40.7426 26.9951 40.4785 26.9911C40.5023 27.0307 40.523 27.073 40.5324 27.1184C40.5867 27.3735 40.5785 27.7428 40.4238 27.9654L39.5832 27.9667L39.5758 24.5382ZM40.4699 26.3304C40.7164 26.3351 41.2758 26.3995 41.4637 26.2435C41.4941 26.2181 41.518 26.1845 41.5394 26.1518C41.6641 26.0647 41.7113 25.9788 41.7344 25.8343C41.7559 25.7003 41.7461 25.5659 41.657 25.4557C41.5375 25.3077 41.3191 25.256 41.1363 25.239C40.9207 25.2191 40.6527 25.229 40.4398 25.2669C40.5894 25.4484 40.5617 25.9301 40.5332 26.1561C40.525 26.2196 40.5066 26.2775 40.4699 26.3304Z" fill="white"/>
<path d="M28.5104 24.5385C28.8019 24.5344 29.0904 24.5361 29.3815 24.5508C29.5433 25.0494 29.7961 25.5146 30.0156 25.9901C30.3256 26.6615 30.6212 27.337 30.9684 27.9915L29.969 27.9895C29.8962 27.7939 29.8266 27.5265 29.6894 27.3651C29.6037 27.2644 29.5464 27.2743 29.4238 27.2651L28.1649 27.264C28.0633 27.5074 27.9556 27.7437 27.8343 27.9782C27.5248 27.9914 27.217 27.9825 26.9076 27.9735C27.0688 27.7034 27.1811 27.3869 27.3128 27.1013C27.5563 26.5738 27.8067 26.0504 28.0403 25.5184C28.1765 25.208 28.3111 24.8113 28.5104 24.5385ZM28.381 26.6186L28.9356 26.601L29.3371 26.5824C29.2604 26.3843 29.044 25.6603 28.8785 25.5791C28.6649 25.8926 28.5278 26.2711 28.381 26.6186Z" fill="white"/>
<path d="M53.698 24.5463C53.9562 24.5371 54.2094 24.5298 54.4672 24.5495C54.6758 24.6794 54.8586 25.1283 54.9766 25.3512C55.1527 25.6844 56.1246 27.7434 56.0516 27.9655C55.8492 27.9704 55.6379 27.9837 55.4363 27.9721C55.0957 27.9523 55.1223 27.5208 54.9144 27.2967C54.9098 27.2917 54.9051 27.2869 54.9 27.2821C54.7465 27.2504 54.5621 27.2664 54.4043 27.2642L53.3777 27.2652C53.3387 27.5075 53.1922 27.7455 53.0301 27.9273C52.75 27.9961 52.3441 27.9521 52.05 27.9535C52.498 27.5933 53.4691 25.1706 53.698 24.5463ZM53.5586 26.6295L54.0527 26.6324L54.5738 26.6259C54.6207 26.374 54.3789 25.8566 54.2371 25.6509C54.2156 25.6197 54.1945 25.6045 54.1629 25.5848L54.0941 25.5744C53.9734 25.9408 53.8426 26.3524 53.5586 26.6295Z" fill="white"/>
<path d="M43.1551 24.5728C43.5301 24.5361 45.6344 24.4613 45.8457 24.6039C45.9289 24.7636 45.9375 24.955 45.8824 25.1256C45.8707 25.1622 45.8348 25.1833 45.8059 25.2085C45.2473 25.2813 44.6375 25.2397 44.0723 25.2419C44.1797 25.4383 44.1434 25.7014 44.1305 25.9168C44.6719 25.9564 45.2199 25.923 45.7625 25.9341C45.8344 26.0851 45.8203 26.3687 45.7563 26.5224C45.7453 26.5487 45.7332 26.5631 45.7152 26.5848L44.0735 26.5857C44.1555 26.7299 44.093 27.0377 44.041 27.1924C44.0317 27.2199 44.0203 27.2414 44.0063 27.2668L46.0125 27.2741C46.0309 27.3203 46.0477 27.3681 46.0551 27.4174C46.0762 27.5608 46.0629 27.8423 45.977 27.9616C45.0376 27.9591 44.0984 27.9634 43.1594 27.9745C43.1742 27.9512 43.1863 27.9271 43.1961 27.9013C43.3215 27.569 43.3109 24.9337 43.1551 24.5728Z" fill="white"/>
<path d="M45.8457 24.6039C45.9289 24.7636 45.9375 24.955 45.8824 25.1257C45.8707 25.1622 45.8348 25.1833 45.8059 25.2085C45.2473 25.2813 44.6375 25.2397 44.0723 25.2419C44.1797 25.4383 44.1434 25.7014 44.1305 25.9168C44.6719 25.9564 45.2199 25.9231 45.7625 25.9341C45.8344 26.0851 45.8203 26.3687 45.7562 26.5224C45.7453 26.5487 45.7332 26.5631 45.7152 26.5848L44.0734 26.5858C44.1555 26.7299 44.093 27.0378 44.041 27.1924C44.0316 27.2199 44.0203 27.2414 44.0063 27.2668C44.0074 27.0071 44.0246 26.7354 43.9738 26.48C44.4828 26.4537 45.1562 26.5798 45.6336 26.4319C45.6656 26.3863 45.693 26.3455 45.7008 26.2894C45.7148 26.188 45.6977 26.1778 45.6387 26.0992C45.2988 25.915 44.3547 26.015 43.9277 26.0182C43.9313 26.0135 43.9348 26.009 43.9379 26.0041C44.0891 25.7754 44.0199 25.3854 43.9637 25.1344C44.2719 25.118 45.6164 25.2156 45.7809 25.0868C45.8578 24.9418 45.843 24.7636 45.8457 24.6039Z" fill="white"/>
<path d="M50.7387 24.5843C51.0418 24.5441 51.3582 24.5596 51.6641 24.5603C51.7789 24.7556 51.7348 27.2378 51.7168 27.6168C51.7105 27.7457 51.7195 27.8163 51.6188 27.9052C51.4645 28.0182 50.9555 27.9658 50.752 27.9639C50.7867 27.9166 50.8066 27.8753 50.8199 27.8179C50.9195 27.3822 50.9332 24.8864 50.7387 24.5843Z" fill="white"/>
<path d="M65.282 28.413C65.3875 27.994 65.2551 26.4142 65.2461 25.8566C65.3371 26.0135 65.5422 28.5035 65.4519 28.7596C65.4465 28.7749 65.4348 28.7947 65.4273 28.8079C66.1758 29.2725 66.9809 29.4948 67.8566 29.6031L67.8809 29.6448C67.4851 29.8053 66.8262 29.6886 66.3945 29.7133C66.3266 29.7094 66.2469 29.6798 66.1801 29.6634L66.2617 29.5941L66.234 29.5398C66.0004 29.3801 65.7184 29.2844 65.4461 29.2051C65.5137 29.329 65.4961 29.5208 65.4562 29.6523L65.323 29.7044C65.3262 29.6925 65.3293 29.6806 65.332 29.6686C65.4004 29.3776 65.3891 28.8449 65.2168 28.5957C64.9863 28.2618 64.373 28.2245 63.9945 28.1535C63.8734 28.4111 63.5957 28.721 63.3785 28.9092C63.2766 28.9979 63.1906 29.0627 63.0508 29.0556L63.0035 28.9155C63.2035 28.8782 63.3668 28.7219 63.5148 28.5934C63.6406 28.4842 63.7816 28.3361 63.7922 28.1691L63.6664 28.0689C63.7422 28.0766 63.7996 28.0857 63.8715 28.057L63.8578 27.9613C63.9922 27.9956 64.1269 28.0317 64.2621 28.0636C64.5867 28.2293 64.9586 28.2551 65.282 28.413Z" fill="white"/>
<path d="M28.0187 12.3957C29.0123 12.3649 30.0906 12.3511 31.0614 12.5766C31.812 12.751 32.6148 13.1128 33.0275 13.7809C33.297 14.217 33.3641 14.7809 33.2366 15.2732C33.0461 16.0082 32.4968 16.3633 31.8731 16.7259C32.1466 16.8126 32.4287 16.9051 32.6824 17.0384C33.2151 17.3182 33.6105 17.7671 33.7799 18.3376C33.9462 18.8983 33.877 19.5624 33.5841 20.0728C33.1796 20.7778 32.4973 21.054 31.7429 21.2632C30.668 21.4624 29.6029 21.4087 28.5162 21.4095L24.7265 21.4153C24.7718 20.1947 24.7391 18.9693 24.7388 17.748C24.7529 15.9664 24.7526 14.1849 24.738 12.4033C25.8316 12.4095 26.9252 12.407 28.0187 12.3957ZM27.1203 17.7002C27.1168 18.4121 27.1234 19.1239 27.14 19.8357C28.1574 19.841 29.7883 20.0073 30.7287 19.6767C31.0058 19.5634 31.2452 19.4161 31.3617 19.1328C31.4555 18.9047 31.4645 18.6175 31.3605 18.3914C31.2321 18.1121 30.9463 17.9427 30.661 17.8444C29.7742 17.5387 28.5737 17.6652 27.6414 17.6909L27.1203 17.7002ZM27.1321 14.0919C27.1219 14.7544 27.1207 15.4169 27.1285 16.0794C28.0552 16.1068 29.0415 16.1947 29.9551 16.027C30.3126 15.9276 30.5389 15.8343 30.7258 15.4998C30.8448 15.2867 30.9479 15.0292 30.8697 14.7858C30.8028 14.5775 30.6128 14.4355 30.4207 14.3407C29.7557 14.0127 28.8337 14.0387 28.1042 14.0713L27.1321 14.0919Z" fill="white"/>
<path d="M39.3449 12.2795C39.4163 12.2798 39.4876 12.2821 39.559 12.2862C39.6303 12.2903 39.7014 12.2964 39.7723 12.3043C39.8431 12.3122 39.9138 12.322 39.9844 12.3337C40.0547 12.3455 40.1246 12.3591 40.1941 12.3745C40.2639 12.39 40.3331 12.4073 40.4016 12.4264C40.4703 12.4456 40.5384 12.4665 40.6059 12.4893C40.6733 12.5121 40.7401 12.5367 40.8063 12.563C40.8721 12.5894 40.9374 12.6175 41.002 12.6473C41.534 12.8977 42.0231 13.3121 42.2148 13.8717C42.375 14.3383 42.3219 14.8879 42.091 15.3236C41.7578 15.9533 40.9852 16.4864 40.3031 16.6982C40.3117 16.7016 40.3199 16.7049 40.3285 16.7085C40.6152 16.8288 41.7899 17.7358 41.8914 17.9783C42.1469 17.7832 42.3356 17.3904 42.4742 17.1101C42.5633 16.9303 42.7707 16.5654 42.7008 16.3697C43.3738 16.3675 44.05 16.3533 44.7227 16.3772C44.7391 16.4297 44.7551 16.4857 44.7469 16.541C44.6867 16.9678 43.6313 18.9228 43.2379 19.1927C43.5473 19.3545 45.332 21.0916 45.4336 21.3917C44.9512 21.4227 44.4586 21.4041 43.9746 21.4026L43.2063 21.401C43.2047 21.3959 43.2039 21.3906 43.202 21.3857C43.1359 21.2361 42.3223 20.5725 42.1387 20.4865C42.0816 20.6372 41.7328 20.817 41.5809 20.8964C40.2156 21.6093 38.5215 21.763 37.0405 21.3224C36.329 21.1107 35.7234 20.7161 35.3746 20.06C35.0869 19.5191 35.0456 18.914 35.2354 18.3375C35.5549 17.3666 36.4089 16.9264 37.2781 16.4939C36.7113 16.0251 36.1586 15.5179 36.0911 14.7477C36.0471 14.2453 36.2292 13.7403 36.5632 13.3586C37.2413 12.5834 38.3532 12.3521 39.3449 12.2795ZM37.4145 19.151C37.5997 19.5189 37.8445 19.741 38.2504 19.8735C38.7108 20.0237 39.2316 20.0125 39.7012 19.9104C39.9918 19.8335 40.6395 19.6739 40.8152 19.418C40.8223 19.4074 40.8277 19.3956 40.834 19.3844C40.6719 19.0206 38.9836 17.7376 38.585 17.5728C38.5559 17.5608 38.5329 17.5573 38.5019 17.5528C38.0373 17.838 37.5536 18.1284 37.4273 18.6924C37.394 18.841 37.407 19 37.4145 19.151ZM39.3926 15.6273C39.7922 15.4016 40.2219 15.1317 40.3445 14.6651C40.3938 14.4781 40.3773 14.2695 40.2727 14.1026C40.1523 13.911 39.9379 13.8017 39.7176 13.756C39.5035 13.7116 39.2957 13.7108 39.0785 13.7232C38.789 13.7766 38.5095 13.8433 38.3358 14.0986C38.2112 14.2817 38.1954 14.4997 38.2452 14.7098C38.3275 15.0574 38.5637 15.4304 38.8777 15.6219C38.9718 15.6793 39.0899 15.7281 39.2024 15.7029C39.2664 15.6885 39.3328 15.6548 39.3926 15.6273Z" fill="white"/>
<path d="M46.9621 16.3579C48.2937 16.3262 49.6293 16.3515 50.9613 16.3531C52.1535 16.3545 53.3516 16.3286 54.5426 16.3677C54.5457 16.3727 54.5492 16.3777 54.552 16.3829C54.6418 16.5406 54.6434 18.2056 54.5715 18.3991C54.5383 18.4884 54.4863 18.4926 54.4039 18.5288C54.1016 18.6259 47.732 18.5542 46.8379 18.555C46.9859 18.3061 46.8742 16.8041 46.9008 16.4028L46.9621 16.3579Z" fill="white"/>
</svg>
