<svg width="83" height="40" viewBox="0 0 83 40" fill="none" xmlns="http://www.w3.org/2000/svg">
<path d="M18.8023 10.5439C18.794 10.4136 18.7386 10.2068 18.7907 10.09C18.8133 10.0393 18.8333 10.0426 18.8858 10.0225C18.9466 10.0455 18.9896 10.0649 19.0565 10.0539C19.0337 9.98968 19.0248 9.9791 19.0442 9.91136C19.1519 9.88734 19.1812 9.93464 19.279 9.92273L19.2665 9.79117C19.3394 9.73968 19.3504 9.74422 19.437 9.74297C19.4846 9.80265 19.5171 9.85304 19.5926 9.8791C19.6491 9.81504 19.5703 9.69906 19.5875 9.60355C19.728 9.5941 19.7492 9.68742 19.8785 9.72836L19.9304 9.693L19.9171 9.47465C20.003 9.4389 20.0571 9.46605 20.1448 9.48586C20.217 9.43988 20.1635 9.38117 20.1993 9.30082C20.2887 9.28136 20.3083 9.26945 20.3961 9.30261L20.3862 9.42711C20.3983 9.42945 20.4102 9.43355 20.4225 9.43414C20.4851 9.43715 20.5221 9.39007 20.5584 9.35066C20.5281 9.26734 20.499 9.20539 20.5201 9.11589C20.6044 9.11285 20.7311 9.19082 20.81 9.2259C20.8124 9.16007 20.7873 9.13531 20.7534 9.07922L20.7731 9.01179L20.8719 8.9816C21.0429 9.02808 20.9186 9.05734 21.0033 9.13765C21.1329 9.2605 21.4472 9.22449 21.5722 9.46297C21.608 9.53136 21.6129 9.5914 21.58 9.66312C21.4577 9.92965 20.9923 10.0584 20.7325 10.1732C20.604 10.3648 20.3073 10.8487 20.0797 10.9095C19.9515 10.9437 19.8043 10.9332 19.6708 10.9636C18.9257 11.1339 18.3198 11.9083 17.9395 12.5084C18.2957 12.6305 19.1886 12.8736 19.3637 13.2193C19.3929 13.2769 19.3807 13.285 19.3601 13.3453C19.044 13.4992 17.9467 13.0149 17.5447 12.962C17.4266 13.0225 17.3302 13.2317 17.3011 13.3605C17.1475 14.0402 17.3253 14.7286 16.9648 15.4075C16.5289 16.2286 14.8508 17.1116 14.6574 17.5814C14.6317 17.6437 14.6454 17.6507 14.6712 17.7092C15.0151 17.8505 15.2851 17.4574 15.5998 17.423C15.6583 17.4166 15.6623 17.4319 15.7083 17.467C15.7473 17.6052 15.7153 17.7612 15.673 17.8964C15.5257 18.3669 14.7133 18.7262 14.2905 18.9394C14.1701 19.4089 14.0999 19.9165 13.7749 20.2995C14.2101 21.3516 15.1064 22.2782 15.3332 23.3902C15.5417 24.4125 15.6456 25.4712 15.7992 26.5029C15.8862 27.0868 16.0256 27.6625 16.1144 28.2439C16.1493 28.4721 16.0723 28.8576 16.1742 29.0541C16.3798 29.4501 17.0071 29.5094 17.4031 29.6381C17.8399 29.7801 17.9916 29.9984 18.1824 30.3754C19.0807 30.4332 19.9981 30.3968 20.8986 30.3919C20.8817 28.0421 20.8218 25.6731 20.8901 23.3246L47.9653 23.3183L56.846 23.3209C58.457 23.3209 60.087 23.2182 61.6927 23.3761C61.7032 23.3906 61.7081 23.3962 61.7174 23.4133C61.7685 23.5082 61.8163 30.0298 61.7101 30.4081C61.9541 30.4332 62.2045 30.4177 62.4493 30.4127C62.9551 30.1302 63.4066 29.447 64.0266 29.0753L64.0327 29.0717C64.1648 28.6739 64.1097 28.1318 64.1154 27.7148C64.1272 26.8934 64.1766 26.0453 64.1174 25.226C64.0728 24.6098 63.8901 24.0141 63.7847 23.4066C63.5748 22.1995 63.5825 21.2899 63.0775 20.1142C62.6901 19.211 61.595 18.0466 61.4917 17.1362C61.3555 15.9306 62.2021 15.8359 62.8967 15.2058C63.1496 14.9763 63.1509 14.7239 63.4856 14.5362C64.0935 14.1952 64.5721 14.4507 65.1821 13.7139C65.1869 13.7079 65.1914 13.7018 65.1963 13.6957C65.4435 13.7518 65.7191 13.8621 65.944 13.9761C65.9282 13.6728 65.6404 13.7199 65.5606 13.5009C65.6307 13.3861 65.7158 13.2853 65.7949 13.1765C65.8735 13.0681 65.9768 12.9347 65.9521 12.7961C65.7207 12.6207 65.3414 12.6613 65.0958 12.4643C65.0009 12.3882 64.932 12.2978 64.9227 12.1766C64.9478 12.1224 64.9568 12.0883 65.007 12.0512C65.2802 11.8488 65.7045 11.9348 66.0161 11.9755C66.4956 11.7278 66.6998 11.1395 67.4322 11.0717C67.8001 11.0377 68.1203 11.2211 68.3923 11.4418C68.787 11.468 69.2749 12.0911 69.5384 12.3807C69.591 12.4391 69.6352 12.5017 69.6766 12.5682L69.6733 12.602C69.5682 12.6107 69.4634 12.6209 69.3588 12.6324L69.3386 12.6829C69.4804 12.8298 69.6782 12.9895 69.7576 13.1766C69.7503 13.2641 69.6766 13.3461 69.7276 13.4069C69.8144 13.5093 69.9765 13.5453 70.0271 13.6691C70.4709 13.8119 70.7927 14.2049 70.9953 14.5938C71.3001 15.1785 71.4083 15.8082 71.645 16.411C71.8841 17.02 72.2906 17.5891 72.4267 18.2333C72.4879 18.5234 72.3262 18.8202 72.3895 19.099C72.445 19.3414 72.74 19.5659 72.6577 19.8295C72.6509 19.8519 72.6464 19.8603 72.6371 19.8801C72.832 20.2011 72.6954 21.1255 72.7153 21.5325C72.7258 21.748 72.9479 23.0681 72.9179 23.1714C72.9098 23.1986 72.8993 23.2238 72.8863 23.2489C73.1481 23.6044 73.0732 24.0824 73.4014 24.428C73.7698 24.8157 74.3028 25.1361 74.7327 25.466C75.4339 26.0037 78.073 28.0594 78.259 28.7687C78.0661 29.1421 77.7536 29.387 77.5064 29.7181C77.3476 29.9305 77.2507 30.2133 77.0489 30.3863L79.3525 30.3888C79.7306 30.3882 80.1346 30.3596 80.5103 30.3935C80.578 30.5478 80.6052 30.699 80.5383 30.8589C80.5225 30.8968 80.4738 30.9108 80.4374 30.9303C80.2862 31.0079 80.0187 30.9859 79.8465 30.988C78.747 31.0017 77.6426 30.9707 76.5423 30.9706L67.2174 30.9636L61.606 30.9661C60.3225 30.9669 59.039 30.9833 57.7567 30.9307C57.3064 31.0549 55.1945 30.9556 54.5518 30.9555L45.2524 30.9575L2.4937 30.9634C2.49454 30.7748 2.4834 30.585 2.47751 30.3964L6.01506 30.3914C5.75151 29.6652 5.07406 29.2339 4.6959 28.5636C4.73251 28.53 4.76848 28.4957 4.80382 28.4609C4.94073 28.3266 5.5768 27.6491 5.57725 27.4764C5.57753 27.3623 5.48213 27.35 5.58511 27.2227C6.14811 26.5271 8.64837 24.0697 8.8968 23.4192C9.12845 22.8125 9.00655 21.906 8.99803 21.2561C8.10198 20.9703 7.3767 20.4314 6.69795 19.8144C7.40089 19.1651 7.9436 18.3343 8.33168 17.4773C8.81582 16.4082 9.14636 15.2537 9.41915 14.1195C9.54994 13.5757 9.63407 13.0017 9.81584 12.4721C9.89316 12.2468 10.0081 11.9268 10.2046 11.7777C10.8238 11.3078 11.7811 11.4154 12.5068 11.5003C12.7081 11.3075 12.8977 11.1172 13.0701 10.8996C13.054 10.3775 13.0832 9.8625 13.4637 9.44914C13.6894 9.20394 14.0039 9.09086 14.3389 9.07781C15.2334 9.04293 15.92 9.65929 16.5269 10.2053L16.0692 10.5536C16.0574 10.7305 16.1761 11.2371 16.1114 11.3376C16.0684 11.4043 15.9385 11.4359 15.8824 11.5234C15.9287 11.6357 16.0504 11.7091 16.1456 11.7825L16.7359 11.8567C16.822 11.9379 16.9102 12.0287 17.0066 12.0982C17.0857 12.1551 17.1669 12.1618 17.2624 12.1486C17.3682 12.134 18.6371 10.7493 18.8023 10.5439ZM21.5007 30.3873L47.6654 30.3775L56.4253 30.3757C57.9317 30.3758 59.4471 30.4109 60.9522 30.3711L61.0673 30.3143C61.1602 30.0378 61.0933 24.9155 61.0686 24.3626C61.0625 24.233 61.0694 24.0778 61.0057 23.9607C60.9928 23.937 60.9891 23.9331 60.9721 23.9085L21.5682 23.9256C21.4967 24.4619 21.5475 25.0436 21.5341 25.5866C21.4878 27.1866 21.4767 28.7868 21.5007 30.3873ZM67.8808 29.5466C68.6573 30.0232 69.4926 30.2511 70.4012 30.3622C71.8087 30.4528 73.2097 30.1922 74.614 30.1449C74.6869 30.1194 74.7777 30.0208 74.8564 29.9814C75.1526 29.8329 75.4509 29.7596 75.7796 29.715C75.9287 29.5327 76.0835 29.2082 76.0973 28.9756C76.1172 28.6489 75.8043 28.6978 75.656 28.5171C75.5915 28.4385 75.6195 28.3476 75.5794 28.2728C75.5486 28.2154 75.3565 28.0967 75.2997 28.0532C74.6679 27.5688 74.0199 27.1577 73.3325 26.7515C72.7858 26.4284 72.1811 26.122 71.7001 25.7131C70.7611 24.9149 71.0845 22.541 70.541 21.9328C70.3667 22.3493 68.3234 23.3532 67.805 24.4948C67.5229 25.1155 67.9213 25.8678 67.7 26.5005C67.698 26.507 67.6952 26.5133 67.6927 26.5196C67.7872 26.6806 67.9999 29.2344 67.9063 29.4971C67.9007 29.5128 67.8885 29.5331 67.8808 29.5466ZM8.3838 29.9611C8.46279 30.1035 8.54008 30.2458 8.63369 30.38C9.18087 30.405 9.72819 30.4088 10.2757 30.3916L14.2934 30.3908C14.2548 30.0687 14.2822 29.7378 14.2949 29.4144C14.1619 29.2569 14.0337 29.1052 13.8747 28.9707C13.843 27.7316 13.7645 26.4953 13.6391 25.2618C13.5945 24.7844 13.5948 24.2248 13.4371 23.7695C13.3636 23.7103 13.2926 23.6508 13.2245 23.5855C13.2264 23.5077 13.241 23.4468 13.2647 23.3725C13.142 23.0383 11.612 21.0137 11.3487 20.8725C11.2171 21.6823 11.1807 23.0591 10.9259 23.7636C10.8544 23.9611 10.742 24.1434 10.6246 24.3184C10.2821 24.8293 7.63279 28.4713 7.40851 28.6334C7.2695 28.7339 7.17609 28.5645 7.13479 28.8036C7.0969 29.023 7.17042 29.2409 7.3061 29.4166C7.59624 29.7926 7.95377 29.8461 8.3838 29.9611ZM64.4027 20.41C64.545 21.4446 64.4652 22.5278 64.4295 23.5684C64.41 24.1395 64.3646 24.7358 64.4712 25.3007C64.6135 26.0549 65.3713 26.8314 65.467 27.2755C65.4735 27.2803 65.48 27.285 65.4864 27.2899C65.6283 27.3998 65.7053 27.5786 65.8629 27.6624L65.9148 27.6434C65.9882 27.2528 65.7381 24.1989 65.5983 23.681C66.1033 23.3134 67.219 21.557 67.73 20.9384C67.9112 20.7194 68.5653 20.1134 68.62 19.895C68.7359 19.5616 68.5017 18.9503 68.3489 18.6419C68.3323 18.6085 68.31 18.579 68.2853 18.5506L68.2054 18.5349C68.0992 18.8704 67.9687 19.0096 67.6405 19.1798C66.9037 19.5619 66.0409 19.6936 65.2696 19.981C65.0098 20.0777 64.7999 20.3364 64.5409 20.3841C64.4947 20.3925 64.4489 20.4021 64.4027 20.41ZM62.0214 16.0632C62.0197 16.0689 62.0185 16.0747 62.0169 16.0803C61.9711 16.2376 61.8548 16.3701 61.7928 16.5227C61.5991 16.9993 61.8447 17.5583 62.0817 17.9819C62.3452 18.4523 62.6929 18.8736 62.9661 19.3387C63.3632 20.0149 64.0911 21.6964 63.8467 22.4517C63.8439 22.4614 63.8402 22.471 63.8366 22.4807C63.9525 22.6884 64.004 22.9803 63.9306 23.2101C63.9221 23.2361 63.912 23.2613 63.9014 23.2865C63.9626 23.1957 64.0222 23.1014 64.042 22.9933C64.1032 22.6613 64.1263 20.8255 64.0587 20.5081C64.0473 20.4522 64.0321 20.3973 64.0129 20.3434C63.8625 20.2598 63.7117 20.2089 63.6619 20.0332C63.61 19.8508 63.6939 19.5898 63.6052 19.43C63.7101 19.3589 63.8974 19.2278 63.927 19.1019C64.0737 18.7872 63.8427 16.4193 63.7061 16.0703C63.6822 16.0093 63.6514 15.9568 63.6092 15.9059C63.4585 15.7878 63.2299 15.6212 63.0297 15.6417C63.0216 15.6425 63.0139 15.6436 63.0058 15.6445C62.883 15.8347 62.2609 16.0017 62.0214 16.0632ZM68.3367 16.8552C68.3331 16.8495 68.3298 16.8437 68.3262 16.8381C68.1475 16.5697 67.6056 16.4332 67.623 16.0755C67.6611 16.045 67.6656 16.0252 67.7179 16.0297C67.9525 16.0503 68.4068 16.5526 68.6451 16.477C68.6994 16.4598 68.7623 16.4202 68.8141 16.3951L68.8178 16.3518C68.5799 16.1941 68.3031 16.0468 68.0867 15.8653C67.9189 15.7244 67.7876 15.5539 67.6133 15.4174C68.0976 15.4831 68.5114 15.9398 68.9702 15.9359L69.018 15.9003C68.986 15.7208 68.7003 15.5398 68.5475 15.4362C68.2776 15.2535 68.0101 15.0963 67.7102 14.9638C67.8978 14.9776 68.0879 14.9888 68.2699 15.0363C68.4036 15.0712 68.7375 15.2239 68.8518 15.2127C68.8766 15.2103 68.8936 15.1876 68.9142 15.175C68.9232 15.0777 68.9057 15.004 68.8421 14.9253C68.7424 14.8017 68.4453 14.739 68.2873 14.7325C68.2301 14.7301 68.1714 14.7382 68.115 14.7461C67.326 15.4322 67.2988 16.7643 67.0322 17.6903C67.0707 17.8102 67.1622 17.8778 67.2769 17.9364C67.4395 18.0196 67.7625 18.1382 67.9473 18.0786C67.9768 18.069 68.0028 18.0575 68.0299 18.0428C68.0332 17.9887 68.0409 17.9838 68.0016 17.944C67.8253 17.7665 67.3969 17.6177 67.1545 17.5429C67.1606 17.5378 67.1667 17.5328 67.1728 17.5277C67.2676 17.4457 67.3183 17.3161 67.4322 17.2726C67.6883 17.3162 67.9258 17.5587 68.1977 17.5201C68.1835 17.4157 68.0988 17.3414 68.0137 17.2769C67.8573 17.1581 67.4909 17.0005 67.42 16.8364L67.4496 16.7425C67.8115 16.6374 68.079 17.0153 68.3959 16.9937C68.4 16.9166 68.3845 16.9136 68.3367 16.8552ZM16.152 12.6088C16.0263 12.4621 15.9066 12.2957 15.7277 12.2074C15.568 12.4184 15.3437 12.862 15.0651 12.9069C14.7876 12.9517 14.5736 12.7412 14.3629 12.6037L13.908 12.9448C14.19 13.3475 14.2665 13.8542 14.5728 14.2416L14.1189 14.3113C14.1269 14.536 13.9777 15.4921 14.0132 15.5673C14.4814 15.1652 15.3095 14.4621 15.6405 13.9705C15.7658 13.7844 15.7738 13.4744 15.9208 13.3202C16.138 13.0923 16.62 13.0668 16.7274 12.7582C16.6123 12.6497 16.3094 12.6334 16.152 12.6088ZM64.1032 16.5819C64.1073 16.5894 64.1114 16.5969 64.1154 16.6046C64.3683 17.1286 64.1239 18.6984 64.5519 19.075C64.5742 19.0777 64.6321 19.0916 64.6512 19.0868C64.7253 19.0683 65.4759 18.6718 65.5509 18.6158C65.561 18.6082 65.5768 18.592 65.5849 18.5842C65.7872 18.5102 66.0255 18.3948 66.1483 18.2177C66.1069 18.1562 64.3257 16.6204 64.241 16.575L64.1032 16.5819ZM66.53 12.7812C66.5268 12.7877 66.5235 12.7944 66.5199 12.8007C66.3744 13.0537 65.942 13.1105 65.9233 13.4259C66.0251 13.6035 66.2581 13.5926 66.3878 13.7152C66.376 13.865 66.2917 14.1084 66.3505 14.2401C66.4571 14.3358 66.5965 14.3621 66.7387 14.3563C66.8899 14.3501 67.0476 14.3098 67.1955 14.2793L67.2214 14.2384C67.3539 14.0064 67.4184 13.6333 67.3422 13.3709C67.4751 13.3103 67.6619 13.2506 67.711 13.1027C67.7361 13.0271 67.7227 13.0169 67.6846 12.9525C67.5367 12.9266 67.4492 12.9595 67.3252 13.0421C67.2355 13.1029 67.1471 13.1654 67.0601 13.2296L67.0451 13.1861L66.9795 13.2696L67.0188 13.256C66.9827 13.2551 66.9969 13.2528 66.9754 13.2576C66.8814 13.0388 66.9077 12.6182 66.6613 12.5221C66.526 12.4692 66.3322 12.4677 66.1868 12.4805C66.3063 12.5612 66.4717 12.6475 66.53 12.7812ZM63.9825 30.427C64.1324 30.426 64.3217 30.447 64.4668 30.4221C64.5458 30.2593 64.6151 30.126 64.5888 29.9419C64.6966 29.8957 64.8263 29.8611 64.8862 29.7578C64.8708 29.723 64.872 29.6964 64.8331 29.6826C64.5709 29.5886 64.301 29.6861 64.0372 29.6237C63.9881 29.6121 63.9578 29.6179 63.9095 29.6289C63.7859 29.8516 63.1245 30.3268 62.8801 30.4234L63.9825 30.427ZM14.7397 16.2063C15.2639 15.8737 15.7303 15.4885 16.1796 15.0672C16.1639 14.8853 16.1764 14.5453 16.0705 14.4058C15.7704 14.7207 14.6956 15.817 14.6617 16.1409C14.6905 16.178 14.691 16.1965 14.7397 16.2063ZM68.5037 18.1235C68.5904 18.2045 68.7452 18.3514 68.7542 18.4736C68.755 18.4812 68.7533 18.4889 68.7525 18.4966C69.0062 18.6302 69.8626 18.3195 70.1625 18.2349C70.6764 18.09 71.3832 17.9471 71.7974 17.6144L71.829 17.538C71.7649 17.476 71.737 17.4719 71.645 17.4734C71.6134 17.4739 71.6061 17.4759 71.5785 17.4805C70.9143 17.947 69.4954 18.2753 68.6832 18.1529C68.6233 18.1437 68.5634 18.1339 68.5037 18.1235ZM66.0538 28.7887C66.0518 28.623 66.0737 28.3861 66.0007 28.2349C65.8447 27.9102 65.3337 27.4545 65.0929 27.1352C64.881 26.8541 64.7112 26.4419 64.4623 26.2067C64.4383 26.1839 64.4137 26.1619 64.3886 26.1405C64.5381 26.4259 64.545 28.6708 64.4206 29.0472C64.4092 29.081 64.3918 29.1124 64.3723 29.1423C64.8433 29.2205 65.0455 29.312 65.3661 29.657C65.5736 29.6188 65.743 29.4584 65.8966 29.3266C66.0271 29.2146 66.1734 29.0628 66.1843 28.8915L66.0538 28.7887ZM65.9436 14.3555C65.7106 14.6329 65.1732 14.6635 64.8729 14.8948C64.8202 14.9352 64.7614 14.9698 64.7059 15.0063C64.7695 15.2123 64.7659 15.4116 64.7557 15.6242C65.0147 15.9281 65.6178 16.4699 66.0214 16.5512C66.055 16.5373 66.0879 16.5282 66.1146 16.504C66.5916 16.313 67.0544 15.5123 67.2453 15.0705C67.2923 14.9611 67.3191 14.8669 67.3118 14.748C67.2591 14.6756 67.2506 14.6572 67.1558 14.642C66.9479 14.6088 66.6484 14.6813 66.4352 14.7109C66.3732 14.5769 66.1868 14.401 66.0376 14.3578C66.0052 14.3484 65.9768 14.352 65.9436 14.3555ZM71.8128 17.9492C71.4342 18.3591 69.6518 18.6945 69.0751 18.791C68.9633 18.8097 68.8701 18.7958 68.8701 18.926L68.9386 19.0121L69.0484 19.0224C69.91 18.9964 71.3674 18.5689 72.0596 18.0693L72.096 17.9926C72.0194 17.9427 71.9761 17.9176 71.8788 17.934C71.8565 17.9377 71.8346 17.9435 71.8128 17.9492ZM75.6025 27.3644C75.4549 27.0928 74.473 26.519 74.1771 26.3257C73.9234 26.1598 73.6251 26 73.3945 25.8075C73.2843 25.7155 73.2798 25.5571 73.1947 25.5305C72.9714 25.4607 72.5864 25.5951 72.355 25.628C72.522 25.5505 72.7923 25.4334 72.8608 25.2581C72.8685 25.239 72.8693 25.2329 72.8734 25.2147L72.8426 25.1653C72.5783 25.1491 72.4446 25.3305 72.1998 25.1452L72.1884 25.0801C72.2744 24.9864 72.4498 24.939 72.4985 24.8329C72.3489 24.7296 72.0393 24.771 71.8541 24.7759C71.9522 24.6162 71.9347 24.3356 71.9542 24.1496L71.9218 24.1385L71.8055 24.2737L71.7536 24.2614C71.7167 24.0676 71.3272 21.795 71.2948 21.7534C71.2798 21.7342 71.2551 21.7243 71.2356 21.7097L71.153 21.6991C71.1534 21.7062 71.1546 21.7134 71.155 21.7205C71.17 21.9112 71.0914 22.0936 71.1039 22.29C71.1416 22.9002 71.4083 24.4119 71.6381 24.9455C71.7228 25.1427 71.8541 25.3093 72.0198 25.45C72.6731 26.0057 73.5664 26.39 74.2999 26.8518C74.7254 27.1196 75.1024 27.4616 75.534 27.7191C75.6531 27.7901 75.857 27.9205 75.9988 27.9145C76.0118 27.9139 76.0252 27.9122 76.0381 27.9111C76.075 27.8432 76.073 27.8403 76.0479 27.7672C75.9911 27.5999 75.8124 27.4555 75.6503 27.3831C75.6345 27.3762 75.6187 27.3702 75.6025 27.3644ZM66.6719 28.7833C66.6751 28.7787 66.6783 28.7743 66.6812 28.7696C66.686 28.7619 66.6901 28.7538 66.6946 28.746C66.9106 28.3797 66.5839 25.943 66.5211 25.4086C66.4903 25.1474 66.4015 24.8096 66.4259 24.5536C66.4417 24.387 66.7857 24.3777 66.9073 24.2804C66.7703 24.1896 66.4607 24.1925 66.3817 24.0881C66.5004 24.0743 66.6289 24.0828 66.7233 24.0102L66.7201 23.8614C66.7302 23.8555 66.74 23.8493 66.7501 23.8439C66.9021 23.7648 67.0313 23.9025 67.1716 23.94L67.1825 23.903C67.0779 23.8409 66.9727 23.7798 66.8668 23.7195L66.8619 23.667C66.9041 23.6461 66.945 23.6227 66.9876 23.6026C67.0301 23.5822 67.0613 23.572 67.0946 23.5363C67.345 23.2664 67.5967 22.7045 67.8374 22.3727C68.2476 21.8084 68.7619 21.296 69.144 20.7178C69.2081 20.6213 69.283 20.5004 69.2733 20.3826C69.6117 20.3862 70.3116 20.4547 70.6103 20.3709C70.6326 20.3462 70.6537 20.3239 70.6654 20.2925C70.7007 20.1947 70.6869 20.0327 70.6277 19.9457C70.5763 19.87 70.539 19.875 70.4518 19.8562C70.3019 19.9207 70.3214 20.0278 70.2103 20.124C70.0628 20.2515 69.8978 20.1036 69.7479 20.0698C69.6146 20.04 69.4695 20.0323 69.3337 20.0201C69.5473 19.9945 69.8075 19.9743 70.002 19.8834C69.7519 19.7495 69.2806 19.6389 68.9945 19.6296L68.9345 19.6868C68.9219 19.8198 69.0273 19.9519 69.095 20.0629C69.0601 20.1518 68.9025 20.1258 68.8121 20.1703C68.7031 20.2237 68.5904 20.3589 68.5082 20.4483C67.8484 21.1681 67.3928 22.0644 66.7651 22.8131C66.6492 22.9513 65.957 23.7189 65.9339 23.8054C65.8374 24.1712 66.0798 24.9323 66.1158 25.3338C66.192 26.1898 66.2321 27.0608 66.2589 27.9197C66.2666 28.1725 66.237 28.4274 66.2524 28.6783C66.3918 28.7135 66.5316 28.7505 66.6719 28.7833ZM68.6618 30.424L68.7465 30.353L68.7177 30.2973C68.4753 30.1335 68.1827 30.0353 67.9002 29.954C67.9704 30.0811 67.9521 30.2778 67.9108 30.4127L68.6618 30.424ZM68.6119 17.9357C69.2186 17.983 71.0889 17.5032 71.5396 17.1036C71.5688 17.0775 71.5817 17.0556 71.6012 17.0224L71.5777 16.9632C71.5104 16.9373 71.4687 16.9293 71.3965 16.9336C70.9973 17.2645 69.9602 17.5139 69.4374 17.5929C69.1821 17.6314 68.896 17.6362 68.648 17.6982C68.5653 17.7189 68.5503 17.732 68.5061 17.8007C68.5325 17.8871 68.5325 17.8878 68.6119 17.9357Z" fill="black"/>
<path d="M57.7567 30.9307L57.7927 30.874C58.2333 30.8116 58.7326 30.86 59.18 30.8595L62.07 30.8557L72.7206 30.857C73.3929 30.8571 80.3044 30.8043 80.4309 30.8863L80.4374 30.9303C80.2862 31.0079 80.0187 30.9859 79.8465 30.988C78.747 31.0017 77.6426 30.9707 76.5423 30.9706L67.2174 30.9635L61.606 30.966C60.3225 30.9669 59.039 30.9833 57.7567 30.9307Z" fill="#1F1F1F"/>
<path d="M68.3922 11.4418C68.787 11.468 69.2749 12.0911 69.5384 12.3807C69.591 12.4391 69.6352 12.5017 69.6766 12.5682L69.6733 12.602C69.5682 12.6107 69.4634 12.6209 69.3588 12.6324L69.3386 12.6829C69.4804 12.8298 69.6782 12.9895 69.7576 13.1766C69.7503 13.2641 69.6766 13.3461 69.7276 13.4069C69.8143 13.5093 69.9765 13.5453 70.0271 13.6691C69.9793 13.6845 69.9165 13.7089 69.8654 13.698C69.745 13.6722 69.5266 13.5012 69.4666 13.3933C69.3491 13.1817 69.5193 13.2434 69.5542 13.1247C69.435 12.985 69.2936 12.8907 69.1416 12.7878C69.185 12.6947 69.1651 12.5805 69.155 12.4816C69.1035 11.9798 68.7708 11.7407 68.3922 11.4418Z" fill="#1F1F1F"/>
<path d="M72.8863 23.2489C72.8827 23.2439 72.8794 23.239 72.8762 23.234C72.6796 22.9244 72.4053 20.2033 72.4806 19.8573C72.5941 19.917 72.5402 20.0395 72.6484 20.0996L72.6371 19.8801C72.832 20.201 72.6954 21.1255 72.7153 21.5324C72.7258 21.748 72.9479 23.0681 72.9179 23.1714C72.9098 23.1985 72.8993 23.2238 72.8863 23.2489Z" fill="#1F1F1F"/>
<path d="M48.9237 25.1754C49.5904 25.1508 50.3531 25.1066 50.9809 25.3638C51.4186 25.5432 51.7781 25.8766 51.9515 26.3064C52.1234 26.7326 52.1063 27.2512 51.9122 27.6676C51.7785 27.9544 51.5053 28.2517 51.1969 28.3663C51.19 28.3756 51.1839 28.3857 51.1762 28.3942C50.7945 28.799 48.9959 28.6842 48.4358 28.6682C48.5306 28.5113 48.5209 25.5538 48.4658 25.2081L48.9237 25.1754ZM49.3274 27.9434C49.6812 27.9603 50.4532 28.0389 50.7313 27.7781C50.7564 27.7544 50.7771 27.7273 50.792 27.6967C50.9894 27.5908 51.1276 27.3621 51.188 27.1559C51.2541 26.9298 51.1912 26.6779 51.0693 26.4796C50.8962 26.1974 50.5975 26.0136 50.2721 25.9344C49.9819 25.8639 49.6597 25.8829 49.3643 25.9179C49.4113 26.2525 49.5272 27.6784 49.3477 27.9187C49.3412 27.9272 49.3343 27.9352 49.3274 27.9434Z" fill="black"/>
<path d="M37.3703 25.1781C37.8674 25.1485 38.3767 25.1392 38.8674 25.234C39.3952 25.336 39.8802 25.5824 40.1812 26.026C40.1964 26.0487 40.211 26.0718 40.225 26.0953C40.239 26.1188 40.2524 26.1426 40.2653 26.1667C40.278 26.1908 40.2902 26.2152 40.3017 26.2399C40.3133 26.2646 40.3242 26.2895 40.3344 26.3148C40.3446 26.34 40.3542 26.3654 40.3632 26.3911C40.3721 26.4168 40.3803 26.4426 40.3879 26.4687C40.3955 26.4948 40.4024 26.521 40.4086 26.5475C40.4149 26.5738 40.4204 26.6004 40.4253 26.6271C40.4302 26.6537 40.4343 26.6805 40.4378 26.7074C40.4413 26.7343 40.444 26.7612 40.4461 26.7882C40.4482 26.8152 40.4496 26.8422 40.4503 26.8693C40.451 26.8964 40.451 26.9234 40.4503 26.9505C40.4496 26.9776 40.4482 27.0046 40.446 27.0316C40.4439 27.0586 40.4411 27.0856 40.4376 27.1125C40.4341 27.1393 40.4299 27.1661 40.425 27.1927C40.4202 27.2194 40.4146 27.2459 40.4083 27.2723C40.2952 27.7642 39.9975 28.1166 39.5681 28.3841C38.6937 28.7816 37.8153 28.7128 36.8706 28.7025L36.8651 25.1975L37.3703 25.1781ZM37.7644 27.9286C38.2585 27.9398 38.8125 27.9828 39.2181 27.6534C39.4529 27.4127 39.5054 27.1778 39.494 26.8503C39.4851 26.5953 39.403 26.3524 39.203 26.1774C38.8391 25.8591 38.2291 25.8607 37.7642 25.8717C37.7651 26.5569 37.7756 27.2435 37.7644 27.9286Z" fill="black"/>
<path d="M24.9444 25.1772C25.3217 25.1626 25.7078 25.1579 26.0851 25.1719C26.6001 25.1911 26.9997 25.2617 27.3619 25.6407C27.4133 25.8066 27.4782 25.9938 27.4691 26.1679C27.4553 26.4327 27.2801 26.6321 27.0822 26.7985C27.2821 26.9322 27.4749 27.0718 27.5995 27.2775C27.7192 27.4753 27.7726 27.7102 27.7086 27.9348C27.6308 28.2081 27.4108 28.3913 27.1648 28.5255C26.2712 28.8518 25.2215 28.7374 24.2834 28.706C24.3214 27.534 24.29 26.3538 24.3 25.1804L24.9444 25.1772ZM25.2691 27.2285C25.2607 27.4998 25.2473 27.7708 25.2289 28.0417C25.6982 28.048 26.1373 28.055 26.596 27.9421C26.695 27.8648 26.7828 27.7681 26.7973 27.6394C26.8054 27.5681 26.7829 27.5193 26.7362 27.4656C26.58 27.2857 26.1849 27.2375 25.9565 27.2296C25.7279 27.2217 25.4978 27.226 25.2691 27.2285ZM25.2695 26.6114C25.6362 26.6121 26.041 26.6448 26.3909 26.5277C26.4756 26.4325 26.5417 26.3231 26.5263 26.1923C26.5159 26.1036 26.4712 26.0342 26.3936 25.9838C26.1037 25.7955 25.6158 25.8448 25.2782 25.8551L25.2695 26.6114Z" fill="black"/>
<path d="M32.5086 25.2066C32.7616 25.1726 33.0152 25.1812 33.2699 25.1842C33.8933 25.7914 34.4883 26.5884 35.08 27.2448C35.1026 26.5653 35.0241 25.8821 35.0303 25.2L35.9125 25.1988L35.89 28.6906C35.6854 28.721 35.4657 28.7023 35.2589 28.6984C34.6807 28.0064 33.9985 27.3701 33.3883 26.6992C33.3956 27.3693 33.4042 28.0356 33.3786 28.7056C33.089 28.7084 32.7987 28.7176 32.5101 28.6904C32.496 27.5319 32.5693 26.3623 32.5086 25.2066Z" fill="black"/>
<path d="M41.0598 25.1675C41.8854 25.1526 43.0558 25.0226 43.7699 25.4873C44.0195 25.6497 44.1918 25.8916 44.2445 26.1788C44.248 26.198 44.2509 26.2172 44.2534 26.2365C44.2558 26.2558 44.2577 26.2752 44.2591 26.2946C44.2604 26.314 44.2614 26.3334 44.2619 26.3528C44.2624 26.3723 44.2623 26.3917 44.2615 26.4112C44.2609 26.4306 44.2599 26.45 44.2582 26.4694C44.2566 26.4888 44.2546 26.5081 44.2522 26.5274C44.2495 26.5467 44.2464 26.5659 44.2428 26.585C44.2391 26.6042 44.2349 26.6232 44.2303 26.6421C44.2257 26.6611 44.2207 26.6799 44.2153 26.6986C44.2096 26.7173 44.2035 26.7358 44.197 26.7542C44.1906 26.7726 44.1835 26.7908 44.176 26.8089C44.1684 26.8269 44.1604 26.8448 44.1521 26.8625C44.1437 26.8802 44.1348 26.8976 44.1253 26.9149C44.1161 26.9321 44.1064 26.9491 44.0961 26.9659C44.0859 26.9827 44.0752 26.9992 44.0641 27.0154C44.053 27.0317 44.0416 27.0476 44.0297 27.0634C43.7877 27.3888 43.4469 27.5491 43.0465 27.6165C42.8114 27.7414 42.2704 27.6873 41.9964 27.6832C42.0211 27.7239 42.0426 27.7673 42.0523 27.8138C42.1087 28.0755 42.1002 28.4542 41.9397 28.6825L41.0675 28.6838L41.0598 25.1675ZM41.9875 27.0056C42.2432 27.0104 42.8236 27.0765 43.0185 26.9165C43.0501 26.8904 43.0748 26.8559 43.0971 26.8224C43.2264 26.733 43.2755 26.645 43.2994 26.4968C43.3217 26.3594 43.3115 26.2215 43.2191 26.1085C43.0951 25.9567 42.8686 25.9036 42.6789 25.8862C42.4552 25.8658 42.1772 25.8759 41.9563 25.9148C42.1115 26.101 42.0827 26.595 42.0532 26.8268C42.0446 26.892 42.0256 26.9513 41.9875 27.0056Z" fill="black"/>
<path d="M29.5795 25.1678C29.8819 25.1635 30.1812 25.1653 30.4833 25.1803C30.6511 25.6918 30.9134 26.1689 31.1411 26.6565C31.4628 27.3452 31.7695 28.038 32.1296 28.7093L31.0928 28.7073C31.0173 28.5066 30.945 28.2324 30.8027 28.0668C30.7138 27.9635 30.6543 27.9737 30.5272 27.9643L29.221 27.9632C29.1156 28.2127 29.0038 28.4551 28.878 28.6957C28.557 28.7092 28.2376 28.7001 27.9166 28.6909C28.0838 28.4138 28.2003 28.0892 28.337 27.7963C28.5896 27.2552 28.8494 26.7184 29.0917 26.1728C29.2331 25.8544 29.3727 25.4475 29.5795 25.1678ZM29.4452 27.3012L30.0206 27.2832L30.4372 27.264C30.3577 27.0609 30.1331 26.3184 29.9614 26.235C29.7398 26.5565 29.5975 26.9448 29.4452 27.3012Z" fill="black"/>
<path d="M55.7117 25.1758C55.9796 25.1663 56.2422 25.1589 56.5096 25.1791C56.7261 25.3122 56.9157 25.7726 57.0381 26.0012C57.2209 26.343 58.2292 28.4548 58.1534 28.6827C57.9435 28.6876 57.7243 28.7013 57.5151 28.6894C57.1617 28.6691 57.1893 28.2265 56.9737 27.9966C56.9688 27.9915 56.964 27.9866 56.9587 27.9817C56.7994 27.9492 56.6081 27.9656 56.4444 27.9634L55.3793 27.9644C55.3388 28.2129 55.1868 28.457 55.0186 28.6434C54.7281 28.7141 54.307 28.6689 54.0018 28.6703C54.4667 28.3009 55.4742 25.816 55.7117 25.1758ZM55.567 27.3123L56.0797 27.3153L56.6203 27.3086C56.6689 27.0503 56.4181 26.5197 56.2709 26.3086C56.2486 26.2767 56.2268 26.2611 56.1939 26.2409L56.1226 26.2302C55.9974 26.606 55.8616 27.0282 55.567 27.3123Z" fill="black"/>
<path d="M44.7733 25.2029C45.1624 25.1653 47.3456 25.0886 47.5649 25.2348C47.6512 25.3987 47.6601 25.5949 47.603 25.77C47.5908 25.8075 47.5535 25.8291 47.5235 25.855C46.944 25.9296 46.3114 25.8869 45.7249 25.8892C45.8364 26.0907 45.7987 26.3605 45.7853 26.5814C46.347 26.622 46.9156 26.5878 47.4785 26.5992C47.5531 26.754 47.5385 27.0448 47.4721 27.2025C47.4607 27.2295 47.4481 27.2443 47.4295 27.2666L45.7261 27.2675C45.8113 27.4153 45.7464 27.7311 45.6925 27.8897C45.6828 27.9179 45.671 27.94 45.6564 27.966L47.7379 27.9735C47.757 28.0209 47.7744 28.07 47.7821 28.1205C47.804 28.2676 47.7902 28.5563 47.701 28.6787C46.7265 28.6761 45.7521 28.6805 44.7778 28.6919C44.7932 28.668 44.8058 28.6433 44.8159 28.6168C44.946 28.2759 44.935 25.5731 44.7733 25.2029Z" fill="black"/>
<path d="M47.5649 25.2348C47.6512 25.3987 47.6601 25.5949 47.603 25.77C47.5908 25.8075 47.5535 25.8291 47.5235 25.8549C46.944 25.9296 46.3114 25.8869 45.7249 25.8892C45.8364 26.0907 45.7987 26.3605 45.7853 26.5814C46.347 26.622 46.9156 26.5878 47.4785 26.5992C47.5531 26.754 47.5385 27.0448 47.4721 27.2025C47.4607 27.2295 47.4482 27.2442 47.4295 27.2666L45.7261 27.2675C45.8113 27.4153 45.7464 27.7311 45.6925 27.8897C45.6828 27.9179 45.671 27.94 45.6564 27.966C45.6577 27.6997 45.6755 27.421 45.6228 27.159C46.1509 27.1321 46.8496 27.2614 47.3448 27.1097C47.378 27.0629 47.4064 27.0211 47.4145 26.9635C47.4291 26.8596 47.4113 26.8491 47.3501 26.7685C46.9975 26.5795 46.0179 26.6821 45.575 26.6854C45.5786 26.6806 45.5823 26.6759 45.5855 26.671C45.7424 26.4363 45.6706 26.0363 45.6123 25.7789C45.932 25.7621 47.327 25.8622 47.4976 25.7301C47.5774 25.5814 47.562 25.3987 47.5649 25.2348Z" fill="#1F1F1F"/>
<path d="M52.6413 25.2148C52.9558 25.1735 53.2841 25.1894 53.6014 25.1901C53.7206 25.3904 53.6748 27.9363 53.6561 28.325C53.6496 28.4572 53.6589 28.5296 53.5544 28.6208C53.3943 28.7367 52.8662 28.683 52.6551 28.681C52.6912 28.6325 52.7118 28.5901 52.7256 28.5313C52.829 28.0844 52.8431 25.5245 52.6413 25.2148Z" fill="black"/>
<path d="M67.73 29.1416C67.8395 28.7119 67.7021 27.0916 67.6928 26.5196C67.7872 26.6806 68 29.2344 67.9063 29.4971C67.9007 29.5128 67.8885 29.5331 67.8808 29.5466C68.6573 30.0232 69.4926 30.2511 70.4012 30.3622L70.4263 30.405C70.0158 30.5696 69.3321 30.45 68.8843 30.4753C68.8137 30.4712 68.7311 30.4409 68.6618 30.424L68.7465 30.353L68.7177 30.2973C68.4753 30.1335 68.1827 30.0353 67.9003 29.954C67.9704 30.081 67.9521 30.2778 67.9108 30.4127L67.7726 30.4661C67.7758 30.4539 67.7791 30.4417 67.7819 30.4294C67.8528 30.131 67.8411 29.5846 67.6624 29.3289C67.4233 28.9866 66.787 28.9483 66.3943 28.8755C66.2686 29.1396 65.9805 29.4575 65.7551 29.6505C65.6494 29.7415 65.5602 29.8079 65.4151 29.8007L65.3661 29.657C65.5736 29.6188 65.743 29.4584 65.8966 29.3266C66.0271 29.2146 66.1734 29.0628 66.1843 28.8915L66.0538 28.7887C66.1325 28.7966 66.192 28.8059 66.2666 28.7765L66.2524 28.6783C66.3918 28.7135 66.5317 28.7505 66.6719 28.7833C67.0087 28.9532 67.3945 28.9797 67.73 29.1416Z" fill="#1F1F1F"/>
<path d="M29.0694 12.7136C30.1003 12.682 31.219 12.6679 32.2261 12.8991C33.0049 13.078 33.8378 13.4491 34.266 14.1343C34.5456 14.5816 34.6153 15.16 34.4829 15.6649C34.2853 16.4187 33.7154 16.7829 33.0683 17.1548C33.3521 17.2437 33.6448 17.3387 33.908 17.4753C34.4607 17.7623 34.8709 18.2227 35.0466 18.8079C35.2192 19.3829 35.1474 20.064 34.8435 20.5875C34.4238 21.3106 33.7159 21.5939 32.9333 21.8085C31.818 22.0127 30.713 21.9577 29.5855 21.9585L25.6537 21.9645C25.7007 20.7126 25.6668 19.4557 25.6665 18.2032C25.6811 16.3759 25.6809 14.5486 25.6657 12.7214C26.8003 12.7278 27.9348 12.7252 29.0694 12.7136ZM28.1373 18.1541C28.1337 18.8843 28.1405 19.6144 28.1578 20.3443C29.2133 20.3498 30.9054 20.5204 31.881 20.1813C32.1685 20.0651 32.4169 19.914 32.5377 19.6234C32.6351 19.3894 32.6444 19.0949 32.5365 18.863C32.4032 18.5766 32.1068 18.4028 31.8108 18.302C30.8907 17.9885 29.6452 18.1182 28.678 18.1446L28.1373 18.1541ZM28.1496 14.4533C28.139 15.1328 28.1377 15.8123 28.1458 16.4918C29.1073 16.5198 30.1305 16.61 31.0784 16.438C31.4493 16.336 31.6841 16.2403 31.878 15.8973C32.0015 15.6787 32.1084 15.4146 32.0273 15.165C31.9578 14.9513 31.7607 14.8057 31.5614 14.7085C30.8716 14.3721 29.9149 14.3987 29.1581 14.4321L28.1496 14.4533Z" fill="black"/>
<path d="M40.8203 12.5944C40.8943 12.5947 40.9684 12.597 41.0424 12.6012C41.1164 12.6055 41.1902 12.6117 41.2637 12.6198C41.3372 12.628 41.4105 12.638 41.4837 12.65C41.5567 12.6621 41.6292 12.676 41.7014 12.6918C41.7738 12.7077 41.8455 12.7254 41.9166 12.7451C41.9879 12.7647 42.0586 12.7862 42.1285 12.8096C42.1985 12.833 42.2678 12.8582 42.3364 12.8852C42.4048 12.9122 42.4725 12.941 42.5395 12.9717C43.0915 13.2284 43.5989 13.6535 43.7979 14.2275C43.964 14.706 43.9089 15.2696 43.6694 15.7165C43.3237 16.3624 42.5221 16.9092 41.8145 17.1264C41.8234 17.1299 41.8319 17.1333 41.8408 17.1369C42.1383 17.2604 43.3569 18.1906 43.4623 18.4393C43.7273 18.2393 43.9231 17.8364 44.067 17.5489C44.1594 17.3644 44.3746 16.9902 44.302 16.7894C45.0003 16.7872 45.7018 16.7727 46.3997 16.7972C46.4167 16.851 46.4333 16.9085 46.4248 16.9652C46.3624 17.4029 45.2674 19.408 44.8593 19.6849C45.1802 19.8508 47.0319 21.6325 47.1373 21.9403C46.6368 21.972 46.1257 21.953 45.6236 21.9514L44.8264 21.9498C44.8248 21.9446 44.824 21.9391 44.822 21.9341C44.7535 21.7806 43.9093 21.1001 43.7188 21.0119C43.6597 21.1664 43.2977 21.3508 43.1401 21.4322C41.7237 22.1634 39.966 22.3211 38.4294 21.8692C37.6912 21.6521 37.0629 21.2473 36.7011 20.5744C36.4026 20.0196 36.3598 19.399 36.5566 18.8077C36.8882 17.8119 37.7742 17.3605 38.676 16.9168C38.0879 16.4361 37.5145 15.9158 37.4445 15.1259C37.3988 14.6106 37.5878 14.0927 37.9342 13.7012C38.6378 12.9061 39.7914 12.6689 40.8203 12.5944ZM38.8175 19.6421C39.0096 20.0194 39.2636 20.2472 39.6848 20.3831C40.1624 20.5372 40.7028 20.5257 41.1899 20.421C41.4914 20.3421 42.1634 20.1784 42.3458 19.9159C42.3531 19.9051 42.3587 19.893 42.3652 19.8814C42.197 19.5083 40.4454 18.1925 40.0319 18.0234C40.0017 18.0111 39.9778 18.0075 39.9457 18.0029C39.4636 18.2954 38.9618 18.5932 38.8307 19.1717C38.7962 19.3242 38.8098 19.4873 38.8175 19.6421ZM40.8698 16.0281C41.2844 15.7966 41.7302 15.5197 41.8574 15.0412C41.9085 14.8494 41.8915 14.6355 41.7828 14.4642C41.658 14.2678 41.4355 14.1556 41.2069 14.1088C40.9849 14.0632 40.7693 14.0624 40.5439 14.0751C40.2435 14.1299 39.9536 14.1983 39.7733 14.4601C39.6441 14.648 39.6277 14.8716 39.6793 15.087C39.7648 15.4435 40.0098 15.8261 40.3356 16.0225C40.4332 16.0814 40.5557 16.1314 40.6724 16.1056C40.7389 16.0908 40.8078 16.0563 40.8698 16.0281Z" fill="black"/>
<path d="M48.7231 16.7774C50.1047 16.7448 51.4903 16.7708 52.8723 16.7724C54.1092 16.7739 55.3522 16.7473 56.5879 16.7874C56.5911 16.7926 56.5948 16.7977 56.5976 16.803C56.6908 16.9648 56.6924 18.6724 56.6179 18.8709C56.5834 18.9625 56.5295 18.9668 56.444 19.004C56.1303 19.1035 49.5219 19.03 48.5943 19.0308C48.7479 18.7756 48.632 17.2351 48.6595 16.8235L48.7231 16.7774Z" fill="black"/>
</svg>
